<svg version="1.1" xmlns="http://www.w3.org/2000/svg" xmlns:xlink="http://www.w3.org/1999/xlink"
    xmlns:svgjs="http://svgjs.dev/svgjs" viewBox="0 0 243.2658169199156 243.26581691991564" height="243.26581691991564"
    width="243.2658169199156">
    <g>
        <path xmlns="http://www.w3.org/2000/svg"
            d="M72.98 243.266c-40.306 0-72.98-32.674-72.98-72.98v-97.306c0-40.306 32.674-72.98 72.98-72.98h97.306c40.306 0 72.98 32.674 72.98 72.98v97.306c0 40.306-32.674 72.98-72.98 72.98z"
            fill="#4a596d" fill-rule="nonzero" stroke="none" stroke-width="1" stroke-linecap="butt"
            stroke-linejoin="miter" stroke-miterlimit="10" stroke-dasharray="" stroke-dashoffset="0" font-family="none"
            font-weight="none" font-size="none" text-anchor="none" style="mix-blend-mode: normal"
            data-fill-palette-color="accent"></path>
    </g>
    <g transform="matrix(1,0,0,1,48.65316338398311,49.91394725574061)">
        <svg viewBox="0 0 145.95949015194938 143.43792240843442" height="143.43792240843442" width="145.95949015194938">
            <g>
                <svg xmlns="http://www.w3.org/2000/svg" viewBox="0 0 89.89237976074219 88.33941650390625" x="0" y="0"
                    height="143.43792240843442" width="145.95949015194938" class="icon-b-0"
                    data-fill-palette-color="quaternary" id="b-0">
                    <path fill="none" d="M0 0"></path>
                    <path fill-rule="evenodd"
                        d="M2.061 47.345s2.048 2.34 3.626 2.506c1.578 0.167 9.039 3.88 12.196 7.274q5.794 6.411 8.427 19.694c1.435 5.933 2.301 8.273 3.217 8.695 0.458 0.211 1.461-0.161 5.561-2.438 2.552-1.324 6.799-3.493 8.324-4.22s7.976-3.825 9.661-4.715c1.686-0.891 11.031-5.12 16.561-7.648 1.733-0.792 4.801-2.021 5.227-2.314s0.879-0.706 0.879-0.706c0.62 5.67-7.587 5.37-11.594 7.712-3.093 1.809-5.772 2.896-9.661 4.715-3.766 2.153-9.204 4.926-11.421 6.126-2.551 1.324-6.468 3.135-8.017 4.088l-4.508 1.956c-1.672 0.619-1.571 1.072-3.945-9.455-2.213-9.066-6.171-17.645-10.702-21.672-2.204-1.846-6.53-3.933-8.964-5.076-0.722-0.339-2.369-0.528-2.913-1.397z m44.677-31.526c1.464 0.405 3.813 1.314 4.571 3.717 0.937 2.969 1.289 4.51-0.053 8.075-1.391 3.688 1.291 7.12 2.647 10.411l-0.586 0.734c-4.013-5.627-3.886-16.958-4.932-18.906-1.917-3.126-6.427-2.992-12.903-0.98-5.807 1.765-11.24 4.542-17.092 8.242C5.016 35.129 0.876 39.346 2.124 42.72c0.749 2.024 1.792 2.789 4.966 3.149 7.808 0.564 13.317 3.129 16.861 7.571 1.543 2.115 4.249 8.402 5.702 14.385 2.163 6.872 3.037 9.234 4.08 9.999s1.377 0.641 3.382-0.101c1.338-0.495 5.224-2.316 9.11-4.137 8.192-4.565 9.529-5.06 16.758-8.118 4.889-2.193 5.891-2.564 6.31-3.486 0.963-1.507 0.588-2.519-2.581-5.95-2.08-2.34-5.202-6.063-5.897-6.807q-0.278-0.3-0.553-0.606l0.338-0.422q0.583 0.614 1.183 1.211c1.32 1.304 5.767 4.78 9.355 7.288 1.502 0.979 3.129 2.295 3.254 2.633 1.168 1.102 1.545 3.3 0.704 3.958-0.84 0.659-4.22 1.945-8.441 3.891-4.22 1.945-9.444 4.261-11.324 5.34-2.215 1.203-5.572 2.884-7.982 4.104s-8.141 3.842-9.988 4.846-7.438 3.519-8.022 2.968c-0.459-0.213-1.124-3.036-1.788-5.859-2.074-10.741-4.655-16.691-8.199-21.133-3.878-4.32-6.548-6.4-12.142-8.167-3.882-1.249-5.968-2.778-6.757-5.939-1.414-4.847 2.517-8.603 19.653-18.779 4.64-2.867 6.855-4.07 12.203-6.049 8.566-3.553 11.788-3.421 14.429-2.691m-5.885 7.503c-10.265-1.052-17.722 7.865-26.085 12.73-0.794 0.462-0.062 1.892-0.468 2.717-0.615 1.25-3.792 2.752-2.513 3.34 1.774 0.816 15.814-8.69 15.267-5.782-0.404 2.148-3.749 4.289-3.16 6.659 0.65 2.615 4.264 1.327 3.985 2.81-0.283 1.505-2.542 4.159-1.009 5.595 1.455 1.363 9.213-2.039 9.577 1.277 0.293 2.99-4.482 7.788-1.722 9.896l14.948-19.303c-0.937-1.302-1.843-2.8-3.278-3.512-1.067-0.53-2.363 0.148-3.572 0.116-1.601-0.042 2.466-6.057 0.631-6.258-3.867-0.425-6.998 6.689-10.801 6.272-0.134-0.015 5.886-6.714 6.631-7.408 6.775-6.3-7.786 0.75-2.083-4.183 0.6-0.518 6.305-4.675 3.652-4.966m19.444 7.838c3.606-4.561 5.247 2.231 2.962 7.39-5.844 13.2-21.731 31.99-21.731 31.99-4.167 4.197-11.226-1.217-7.408-5.745 7.508-9.681 22.571-29.075 26.177-33.635M83.596 6.042c1.408 0.952-15.418 22.37-16.166 21.556C66.327 26.432 82.39 5.37 83.596 6.042M85.2 2.153c1.439 1.406-1.073 3.616-2.274 1.969q-8.635 11.156-17.274 22.31c0.524 1.618-1.326 1.672-1.326 1.672l0.809 0.627c-0.378-0.061-0.443-0.084-0.867-0.091a5.37 5.37 0 0 0-4.301 2.059L33.808 64.428c-4.492 5.282 4.61 12.333 8.604 6.672l26.159-33.728c1.231-1.674 1.462-3.59 0.619-5.495l0.565 0.438s-0.479-1.685 1.29-1.664c1.604-2.046 3.184-4.111 4.784-6.16L88.328 8.367c-1.453-0.85-0.148-3.305 1.353-2.659C90.737 3.011 87.616 0.463 85.2 2.153"
                        fill="#ffffff" data-fill-palette-color="quaternary"></path>
                </svg>
            </g>
        </svg>
    </g>
</svg>